<?xml version="1.0" encoding="utf-8"?>
<!-- Generator: Adobe Illustrator 22.0.1, SVG Export Plug-In . SVG Version: 6.00 Build 0)  -->
<svg version="1.1" id="Layer_1" xmlns="http://www.w3.org/2000/svg" xmlns:xlink="http://www.w3.org/1999/xlink" x="0px" y="0px"
	 viewBox="0 0 1920 3088" style="enable-background:new 0 0 1920 3088;" xml:space="preserve">
<style type="text/css">
	.st0{fill:#2BB0E7;}
	.st1{fill:#BF2E87;}
</style>
<path class="st0" d="M-2.6,234.1c0,0,102.9-383.9,920.6-210.9S1869.2,1034.6,2075,975l61.4-1217.4L376.5-302H-89.3L-2.6,234.1z"/>
<path class="st1" d="M1965.4,1641.6c1.5,2.4,5.1,4.3,10.1,7.7c29.4,19.8,105.4,88.2,58.7,569.1c-54.6,562.7-184.2-261.1-184.2-261.1
	"/>
<path class="st1" d="M-729.9,3192c6.3-3.9,11.6-13.7,20.6-27.1c53.1-78.7,236.1-282,1522.8-157
	c1505.5,146.2-698.6,492.8-698.6,492.8"/>
</svg>
